<svg width="250" height="170" viewBox="0 0 250 170" fill="none" xmlns="http://www.w3.org/2000/svg">
<ellipse cx="230.972" cy="157.733" rx="60.0476" ry="23.0652" transform="rotate(-36.5581 230.972 157.733)" fill="#FD9F84"/>
<path fill-rule="evenodd" clip-rule="evenodd" d="M203.674 49.1785C203.846 52.0012 203.525 54.8695 202.817 58.082C201.917 62.1687 200.354 63.5516 198.655 63.4956C198.586 62.0211 198.323 60.7834 197.974 59.1406L197.974 59.1406L197.974 59.1405C197.742 58.0509 197.473 56.7832 197.197 55.15C196.934 53.5913 196.744 52.4017 196.539 51.1134L196.539 51.1133L196.539 51.1132L196.539 51.1132L196.539 51.1132C196.205 49.0164 195.83 46.6584 195.027 42.0228C194.085 36.5817 193.783 35.6046 189.052 20.9927C191.8 24.5941 194.106 27.7623 196.015 30.6231L195.072 33.3431L196.897 31.9668C198.045 33.7466 199.032 35.4075 199.869 36.9831L198.464 41.0376L200.956 39.1583C202.244 41.926 203.046 44.4581 203.435 46.9642L200.571 49.7387L203.674 49.1785Z" fill="#6E9340"/>
<path fill-rule="evenodd" clip-rule="evenodd" d="M187.942 27.0938L187.942 27.0938C187.642 28.7183 187.37 30.1922 187.132 31.5454L189.718 34.2408L186.782 33.5994C186.32 36.4435 186.055 38.7303 186.062 40.8252L189.161 44.055L186.224 43.4132C186.499 45.5986 187.139 47.7398 188.24 50.3151L191.787 51.5467L189.113 52.2486C189.974 54.0695 191.038 56.1207 192.333 58.5322C194.121 61.1624 197.381 64.4702 199.939 63.2274C199.53 63.4234 199.103 63.5036 198.668 63.4892C198.599 62.0147 198.336 60.777 197.987 59.1343C197.755 58.0447 197.486 56.7769 197.21 55.1437C196.947 53.5849 196.757 52.3952 196.552 51.1069C196.218 49.0101 195.843 46.652 195.04 42.0164C194.099 36.5804 193.797 35.6 189.079 21.0271L189.052 20.9926C188.653 23.2451 188.28 25.2644 187.942 27.0929L187.942 27.0931L187.942 27.0938Z" fill="#80A74D"/>
<path fill-rule="evenodd" clip-rule="evenodd" d="M225.169 39.5655C223.733 42.0016 221.863 44.1995 219.479 46.4665C216.447 49.3503 214.378 49.6225 213 48.6255C213.768 47.3646 214.242 46.1915 214.872 44.6346L214.872 44.6345L214.872 44.6344C215.289 43.6018 215.775 42.4003 216.46 40.8923C217.114 39.453 217.622 38.361 218.173 37.1784L218.173 37.1782L218.173 37.1782L218.173 37.1782L218.173 37.1782C219.069 35.2533 220.077 33.0887 222.005 28.7972C224.267 23.76 224.564 22.7811 228.816 8.02294C229.079 12.5452 229.218 16.4612 229.2 19.9006L226.897 21.6277L229.18 21.5078C229.136 23.6252 229.025 25.5539 228.838 27.3285L225.404 29.9029L228.521 29.7391C228.041 32.7541 227.289 35.3012 226.21 37.5963L222.284 38.2942L225.169 39.5655Z" fill="#6E9340"/>
<path fill-rule="evenodd" clip-rule="evenodd" d="M224.483 12.4592L224.483 12.4592C223.325 13.6379 222.275 14.7074 221.321 15.6958L221.957 19.3768L219.882 17.203C217.908 19.3018 216.409 21.0491 215.243 22.7898L216.006 27.2005L213.93 25.0255C212.936 26.991 212.268 29.1235 211.74 31.8742L213.992 34.8793L211.382 33.9653C211.077 35.9561 210.812 38.2516 210.536 40.9747C210.548 44.1564 211.4 48.7234 214.217 49.1217C213.767 49.0557 213.368 48.8834 213.015 48.6274C213.782 47.3666 214.257 46.1935 214.886 44.6366L214.886 44.6365C215.304 43.6038 215.79 42.4023 216.475 40.8942C217.128 39.4549 217.637 38.3628 218.187 37.1801L218.187 37.1801C219.084 35.2553 220.091 33.0907 222.019 28.7992C224.28 23.7667 224.577 22.7849 228.818 8.06606L228.816 8.02283C227.225 9.66655 225.786 11.1317 224.483 12.4585L224.483 12.4586L224.483 12.4592Z" fill="#80A74D"/>
<path fill-rule="evenodd" clip-rule="evenodd" d="M246.666 52.9419C244.611 54.8848 242.204 56.4783 239.286 57.9962C235.573 59.927 233.51 59.6153 232.463 58.2757C233.55 57.2769 234.33 56.2812 235.367 54.9596L235.367 54.9595L235.367 54.9594C236.054 54.0829 236.854 53.063 237.93 51.8038C238.957 50.6021 239.748 49.6936 240.604 48.7098L240.605 48.7097L240.605 48.7097L240.605 48.7097L240.605 48.7097C241.999 47.1085 243.567 45.3078 246.608 41.7183C250.178 37.5052 250.734 36.6467 258.908 23.6443C257.908 28.0624 256.957 31.8636 255.987 35.1635L253.295 36.1849L255.522 36.7021C254.893 38.7245 254.252 40.5469 253.581 42.2001L249.568 43.7226L252.609 44.4288C251.312 47.1927 249.884 49.4318 248.211 51.3381L244.245 50.921L246.666 52.9419Z" fill="#6E9340"/>
<path fill-rule="evenodd" clip-rule="evenodd" d="M253.516 26.7064L253.516 26.7064C252.077 27.5183 250.772 28.255 249.581 28.9403L249.172 32.6535L247.781 29.9899C245.303 31.4596 243.378 32.7232 241.776 34.0728L241.286 38.5221L239.894 35.8572C238.395 37.4703 237.162 39.3343 235.893 41.8311L237.224 45.3422L234.97 43.7412C234.125 45.5694 233.234 47.7017 232.215 50.2418C231.345 53.3003 230.899 57.921 233.49 59.0874C233.078 58.8996 232.744 58.6242 232.476 58.2816C233.563 57.2828 234.344 56.287 235.38 54.9655L235.38 54.9654C236.067 54.0889 236.867 53.069 237.943 51.8097C238.97 50.6079 239.761 49.6994 240.618 48.7156C242.012 47.1144 243.58 45.3137 246.621 41.7242C250.188 37.515 250.746 36.6542 258.899 23.6865L258.908 23.6442C256.924 24.7828 255.136 25.792 253.517 26.706L253.516 26.706L253.516 26.7064Z" fill="#80A74D"/>
<path d="M291.019 66.5804C299.333 68.3401 300.836 77.3029 292.341 85.5014L186.378 196.731L19.8277 196.731C72.7594 150.211 179.393 56.473 182.474 53.6837C186.326 50.1971 190.097 45.5462 205.227 48.5849C220.357 51.6236 282.706 64.8208 291.019 66.5804Z" fill="#6F6FCB"/>
<path d="M280.702 59.5044C289.015 61.264 290.518 70.2269 282.023 78.4254L176.06 189.655L9.5098 189.655C62.4415 143.135 169.075 49.3969 172.157 46.6077C176.008 43.1211 179.779 38.4701 194.909 41.5088C210.039 44.5475 272.388 57.7447 280.702 59.5044Z" fill="#A8A3FB"/>
<path d="M246.533 74.3888C252.709 75.6959 253.825 82.3537 247.515 88.4438L168.803 171.068L45.0849 171.068C84.404 136.512 163.614 66.8807 165.903 64.8087C168.764 62.2188 171.565 58.764 182.804 61.0212C194.044 63.2784 240.358 73.0816 246.533 74.3888Z" fill="#6F6FCB"/>
<ellipse cx="152.362" cy="133.121" rx="64.8385" ry="22.6966" transform="rotate(-34.5701 152.362 133.121)" fill="#B0ABFA"/>
<path d="M214.584 73.3546C206.183 64.1383 183.413 52.7291 135.466 74.6853C116.897 83.1888 107.794 86.5892 103.5 77.6774C100.065 70.5481 105.535 63.0235 108.699 60.1524L94.9529 45.9707C87.828 52.1485 75.8008 69.5439 84.6911 89.7034C93.5815 109.863 118.024 105.892 135.466 100.819C135.466 100.819 134.5 149.44 134.5 156.94L134.5 168.662C143.645 165.442 156.175 158.45 164.98 152.208C174.296 145.605 184.37 137.921 188.338 132.965C188.338 129.461 188.394 128.616 188.019 124.629C187.103 114.885 195.769 77.6775 195.769 77.6775C204.158 80.4746 202.633 83.2717 202.633 85.8146C202.633 93.3867 193.879 106.075 192.008 109.597C192.943 112.454 194.968 122.432 193.565 126.848C207.549 122.368 222.985 82.571 214.584 73.3546Z" fill="#F5F5F5"/>
<path d="M161.526 78.9597L171.252 70.4758L154.843 69.3585L151.604 72.0513L152.881 81.1875L147.38 84.7789L151.964 104.053L161.526 78.9597Z" fill="#249F94"/>
<path d="M114.353 55.83C114.353 55.83 108.076 59.876 107.752 61.564L93.7959 48.8914C94.1271 47.8849 95.9682 45.0726 100.683 41.8762C99.157 40.6514 99.9349 40.6453 100.084 39.3277C100.233 38.01 106.152 34.6925 107.64 33.6836C109.128 32.6746 110.129 33.1256 111.758 34.3672C112.69 33.3004 114.226 34.1707 115.005 36.8574C115.539 36.2349 117.01 35.5851 118.388 38.3869C122.395 38.5374 120.107 43.9984 118.443 45.3877C116.778 46.7771 116.5 48.4396 116.5 48.4396C116.5 48.4396 120.504 46.9809 121.5 48.4396C122.539 49.961 119 52.4396 119 52.4396L114.353 55.83Z" fill="#FDB594"/>
<path d="M111.009 43.8305C108.601 45.4627 106.617 44.0896 106.454 43.0108C105.955 39.7018 110.235 37.6255 112.436 37.001" stroke="#F37E4E" stroke-width="0.854942" stroke-linecap="round"/>
<path d="M114.907 45.7789C112.5 47.411 110.515 46.0379 110.353 44.9591C109.854 41.6502 114.133 39.5739 116.335 38.9494" stroke="#F37E4E" stroke-width="0.854942" stroke-linecap="round"/>
<path d="M106.863 40.618C104.456 42.2502 102.471 40.8771 102.309 39.7983C102.244 39.3694 101.806 39.057 102.889 37.368" stroke="#F37E4E" stroke-width="0.854942" stroke-linecap="round"/>
<rect x="165" y="87.4396" width="13.8227" height="4.65292" fill="#D9D9D9"/>
<rect width="4.76358" height="11.115" rx="2.38179" transform="matrix(-0.0852725 -0.996358 -0.996358 0.0852725 124.077 153.408)" fill="#D9D9D9"/>
<rect width="4.76358" height="11.115" rx="2.38179" transform="matrix(-0.0852725 -0.996358 -0.996358 0.0852725 124.077 153.408)" fill="#FBFEFF"/>
<path d="M118.54 153.882L115.376 154.153C114.065 154.265 112.912 153.293 112.799 151.983C112.687 150.672 113.659 149.519 114.969 149.406L118.134 149.136L118.54 153.882Z" fill="#80A74D"/>
<rect width="4.76358" height="11.115" rx="2.38179" transform="matrix(0.618561 -0.785737 -0.785737 -0.618561 116.875 142.863)" fill="#D9D9D9"/>
<rect width="4.76358" height="11.115" rx="2.38179" transform="matrix(0.618561 -0.785737 -0.785737 -0.618561 116.875 142.863)" fill="#FBFEFF"/>
<path d="M112.508 139.425L110.013 137.461C108.979 136.647 108.801 135.15 109.615 134.116C110.428 133.083 111.926 132.904 112.959 133.718L115.455 135.683L112.508 139.425Z" fill="#FDB897"/>
<rect x="107.574" y="148.216" width="1.17282" height="3.51846" rx="0.586411" transform="rotate(-63.6727 107.574 148.216)" fill="#6F6FCB"/>
<rect x="105.968" y="152.919" width="1.17282" height="3.51846" rx="0.586411" transform="rotate(-95.0726 105.968 152.919)" fill="#6F6FCB"/>
<rect x="109.233" y="157.271" width="1.17282" height="3.51846" rx="0.586411" transform="rotate(-133.308 109.233 157.271)" fill="#6F6FCB"/>
<rect x="106.933" y="126.832" width="1.17282" height="3.51846" rx="0.586411" transform="rotate(-24.4239 106.933 126.832)" fill="#F7F2FD"/>
<rect x="102.713" y="129.458" width="1.17282" height="3.51846" rx="0.586411" transform="rotate(-55.8238 102.713 129.458)" fill="#F7F2FD"/>
<rect x="102.489" y="134.895" width="1.17282" height="3.51846" rx="0.586411" transform="rotate(-94.059 102.489 134.895)" fill="#F7F2FD"/>
<circle cx="201.5" cy="54.9396" r="2.5" fill="#6F6FCB"/>
<rect x="207.559" y="55.1236" width="22" height="3" rx="1.5" transform="rotate(12.3682 207.559 55.1236)" fill="#6F6FCB"/>
<path d="M129.5 14.4396C129.5 16.6488 128.381 18.4396 127 18.4396C128.381 18.4396 129.5 20.2305 129.5 22.4396C129.5 20.2305 130.619 18.4396 132 18.4396C130.619 18.4396 129.5 16.6488 129.5 14.4396Z" fill="white"/>
<path d="M125.5 0.439636C125.5 5.68634 122.59 9.93964 119 9.93964C122.59 9.93964 125.5 14.1929 125.5 19.4396C125.5 14.1929 128.41 9.93964 132 9.93964C128.41 9.93964 125.5 5.68634 125.5 0.439636Z" fill="white"/>
<path d="M169.103 105.972L168.844 104.085L180.992 102.414L181.249 104.28C181.272 104.451 181.429 104.569 181.599 104.546C183.334 104.307 184.934 105.52 185.173 107.255L187.661 125.336C187.923 127.241 186.591 128.998 184.686 129.26L172.762 130.901C170.857 131.163 169.1 129.831 168.838 127.926L166.322 109.64C166.099 108.018 167.233 106.523 168.855 106.299C169.014 106.278 169.125 106.131 169.103 105.972Z" fill="#A8A3FB"/>
<path d="M182.373 102.453L167.75 104.465C167.584 104.488 167.431 104.372 167.409 104.206L167.047 101.581C166.911 100.587 167.606 99.6708 168.6 99.5341L180.073 97.9555C181.15 97.8073 182.143 98.5602 182.291 99.637L182.632 102.112C182.654 102.277 182.539 102.43 182.373 102.453Z" fill="#6F6FCB"/>
<path d="M168.929 128.372C169.382 130.034 171.01 131.142 172.762 130.901L184.686 129.26C186.438 129.019 187.706 127.513 187.694 125.79L168.929 128.372Z" fill="#6F6FCB"/>
<rect x="168.753" y="112.635" width="7" height="2" transform="rotate(-7.83375 168.753 112.635)" fill="#6F6FCB"/>
<path d="M173.224 120.992C172.977 120.869 172.676 120.969 172.553 121.216C172.429 121.463 172.529 121.763 172.776 121.887L173.224 120.992ZM172.776 121.887C173.897 122.447 176.935 123.155 180.658 121.914L180.342 120.965C176.865 122.124 174.103 121.432 173.224 120.992L172.776 121.887Z" fill="#F37E4E"/>
<path d="M186.36 109.111C189.685 111.748 190.665 111.337 192 110.44C192 110.44 193.919 115.529 194.5 118.94C195.266 123.44 193.5 127.94 193.5 127.94C192.613 128.383 190.296 127.603 187.36 128.185C185.437 128.566 184.455 129.305 182.5 129.44C179.826 129.624 177.404 128.508 175.753 128.185C174.102 127.862 173.741 126.9 173.492 125C172.169 125.083 171.735 123.49 173.006 121.201C172.24 121.257 170.839 120.708 171.791 117.946C169.25 115.185 174.385 113.105 176.405 113.294C178.425 113.484 184.569 115.138 181.86 111.111C179.151 107.083 179.468 105.642 181.86 106.111C184.252 106.579 182.204 105.814 186.36 109.111Z" fill="#FDB594"/>
<path d="M172.224 116.992C171.977 116.869 171.676 116.969 171.553 117.216C171.429 117.463 171.529 117.763 171.776 117.887L172.224 116.992ZM171.776 117.887C172.897 118.447 175.935 119.155 179.658 117.914L179.342 116.965C175.865 118.124 173.103 117.432 172.224 116.992L171.776 117.887Z" fill="#F37E4E"/>
<path d="M173.224 120.992C172.977 120.869 172.676 120.969 172.553 121.216C172.429 121.463 172.529 121.763 172.776 121.887L173.224 120.992ZM172.776 121.887C173.897 122.447 176.935 123.155 180.658 121.914L180.342 120.965C176.865 122.124 174.103 121.432 173.224 120.992L172.776 121.887Z" fill="#F37E4E"/>
<path d="M174.224 124.992C173.977 124.869 173.676 124.969 173.553 125.216C173.429 125.463 173.529 125.763 173.776 125.887L174.224 124.992ZM173.776 125.887C174.897 126.447 177.935 127.155 181.658 125.914L181.342 124.965C177.865 126.124 175.103 125.432 174.224 124.992L173.776 125.887Z" fill="#F37E4E"/>
<path d="M179.5 81.4397C180.658 61.607 167.5 55.8836 158 56.4979C142.359 57.5093 139 64.4393 139 83.9396" stroke="#6F6FCB" stroke-width="3"/>
<path d="M136.5 98.4396C134.833 98.6063 133 98.2396 133 95.4396C133 92.6396 133.415 84.7871 138.5 83.9396C144.5 82.9397 145.991 91.139 146 93.9397C146.009 96.7403 145.5 98.4396 143 98.4396" stroke="#6F6FCB" stroke-width="3" stroke-linecap="round"/>
<rect x="125.069" y="44.7326" width="64.5837" height="29.8079" rx="14.9039" transform="rotate(-3.60049 125.069 44.7326)" fill="#FDB897"/>
<circle cx="143.203" cy="56.036" r="2.48399" transform="rotate(-3.60049 143.203 56.036)" fill="black"/>
<circle cx="157.759" cy="55.1201" r="2.48399" transform="rotate(-3.60049 157.759 55.1201)" fill="black"/>
<path d="M145.082 64.6793C145.048 64.1429 145.642 63.7986 146.091 64.0944C149.926 66.6213 154.952 66.3867 158.535 63.5137L158.845 63.2652C159.278 62.918 159.923 63.2028 159.957 63.7567L160.022 64.7861C160.123 66.3887 159.316 67.9123 157.934 68.7293L157.509 68.9803C154.401 70.8174 150.573 70.9546 147.342 69.3448C146.085 68.719 145.258 67.4714 145.17 66.0707L145.082 64.6793Z" fill="#F37E4D"/>
<circle cx="129.002" cy="64.3963" r="4.96798" transform="rotate(-3.60049 129.002 64.3963)" fill="#F37E4D"/>
<circle cx="170.64" cy="61.7763" r="4.96798" transform="rotate(-3.60049 170.64 61.7763)" fill="#F37E4D"/>
<rect x="135.46" y="29.1454" width="41.2476" height="14.9039" transform="rotate(-3.60049 135.46 29.1454)" fill="white"/>
<rect x="148.905" y="30.9072" width="3.05575" height="9.69866" transform="rotate(-3.60049 148.905 30.9072)" fill="#D9D9D9"/>
<rect x="145.991" y="37.4804" width="3.05575" height="9.69866" transform="rotate(-93.6005 145.991 37.4804)" fill="#D9D9D9"/>
<circle cx="180" cy="85.4396" r="6" fill="#6F6FCB"/>
<circle cx="180" cy="85.4396" r="3" fill="#A8A3FB"/>
</svg>
