<svg width="361" height="178" viewBox="0 0 361 178" fill="none" xmlns="http://www.w3.org/2000/svg">
<g clip-path="url(#clip0_2008_1115)">
<ellipse cx="341.972" cy="165.733" rx="60.0476" ry="23.0652" transform="rotate(-36.5581 341.972 165.733)" fill="#FD9F84"/>
<path fill-rule="evenodd" clip-rule="evenodd" d="M314.674 57.1785C314.846 60.0012 314.525 62.8695 313.817 66.082C312.917 70.1687 311.354 71.5516 309.655 71.4956C309.585 70.0211 309.322 68.7834 308.973 67.1406L308.973 67.1406L308.973 67.1405C308.742 66.0509 308.472 64.7832 308.197 63.15C307.934 61.5913 307.744 60.4017 307.539 59.1134L307.539 59.1133L307.539 59.1132L307.539 59.1132L307.539 59.1132C307.205 57.0164 306.83 54.6584 306.027 50.0228C305.085 44.5817 304.783 43.6046 300.052 28.9927C302.8 32.5941 305.106 35.7623 307.015 38.6231L306.072 41.3431L307.897 39.9668C309.045 41.7466 310.032 43.4075 310.869 44.9831L309.463 49.0376L311.956 47.1583C313.244 49.926 314.045 52.4581 314.435 54.9642L311.571 57.7387L314.674 57.1785Z" fill="#6E9340"/>
<path fill-rule="evenodd" clip-rule="evenodd" d="M298.942 35.0938L298.942 35.0938C298.642 36.7183 298.37 38.1922 298.132 39.5454L300.718 42.2408L297.782 41.5994C297.32 44.4435 297.055 46.7303 297.062 48.8252L300.161 52.055L297.224 51.4132C297.499 53.5986 298.139 55.7398 299.24 58.3151L302.787 59.5467L300.113 60.2486C300.973 62.0695 302.038 64.1207 303.332 66.5322C305.121 69.1624 308.381 72.4702 310.938 71.2274C310.53 71.4234 310.103 71.5036 309.668 71.4892C309.599 70.0147 309.336 68.777 308.986 67.1343C308.755 66.0447 308.486 64.7769 308.21 63.1437C307.947 61.5849 307.757 60.3952 307.552 59.1069C307.218 57.0101 306.843 54.652 306.04 50.0164C305.099 44.5804 304.797 43.6 300.079 29.0271L300.052 28.9926C299.653 31.2451 299.28 33.2644 298.942 35.0929L298.942 35.0931L298.942 35.0938Z" fill="#80A74D"/>
<path fill-rule="evenodd" clip-rule="evenodd" d="M336.169 47.5655C334.733 50.0016 332.863 52.1995 330.479 54.4665C327.447 57.3504 325.378 57.6225 324 56.6255C324.768 55.3646 325.242 54.1916 325.872 52.6346L325.872 52.6346L325.872 52.6344C326.289 51.6018 326.775 50.4003 327.46 48.8923C328.114 47.453 328.622 46.361 329.173 45.1784L329.173 45.1782L329.173 45.1782L329.173 45.1782L329.173 45.1782C330.069 43.2533 331.077 41.0887 333.005 36.7972C335.267 31.76 335.564 30.7811 339.816 16.0229C340.079 20.5452 340.218 24.4612 340.2 27.9006L337.897 29.6277L340.18 29.5078C340.136 31.6252 340.025 33.5539 339.838 35.3285L336.404 37.9029L339.521 37.7391C339.041 40.7541 338.289 43.3012 337.21 45.5964L333.284 46.2942L336.169 47.5655Z" fill="#6E9340"/>
<path fill-rule="evenodd" clip-rule="evenodd" d="M335.483 20.4592L335.483 20.4592C334.325 21.6379 333.275 22.7074 332.321 23.6958L332.957 27.3769L330.882 25.203C328.908 27.3018 327.409 29.0491 326.243 30.7898L327.006 35.2005L324.93 33.0256C323.936 34.991 323.268 37.1235 322.74 39.8742L324.991 42.8793L322.382 41.9654C322.077 43.9561 321.812 46.2516 321.536 48.9747C321.548 52.1564 322.4 56.7234 325.217 57.1217C324.767 57.0557 324.368 56.8834 324.015 56.6274C324.782 55.3666 325.256 54.1935 325.886 52.6366L325.886 52.6365C326.304 51.6038 326.789 50.4023 327.474 48.8943C328.128 47.4549 328.637 46.3628 329.187 45.1802L329.187 45.1801C330.084 43.2553 331.091 41.0907 333.019 36.7992C335.28 31.7667 335.577 30.7849 339.818 16.0661L339.816 16.0228C338.225 17.6666 336.786 19.1318 335.483 20.4586L335.483 20.4586L335.483 20.4592Z" fill="#80A74D"/>
<path fill-rule="evenodd" clip-rule="evenodd" d="M357.666 60.9419C355.611 62.8848 353.205 64.4783 350.286 65.9962C346.574 67.9271 344.51 67.6154 343.463 66.2757C344.55 65.2769 345.331 64.2812 346.367 62.9596L346.367 62.9595L346.367 62.9594C347.054 62.0829 347.854 61.063 348.93 59.8038C349.957 58.6021 350.748 57.6936 351.605 56.7098L351.605 56.7097L351.605 56.7097L351.605 56.7097L351.605 56.7097C352.999 55.1085 354.567 53.3078 357.608 49.7183C361.178 45.5052 361.734 44.6467 369.909 31.6443C368.908 36.0624 367.957 39.8637 366.987 43.1635L364.296 44.1849L366.522 44.7021C365.893 46.7245 365.252 48.5469 364.581 50.2001L360.569 51.7226L363.609 52.4288C362.312 55.1927 360.884 57.4318 359.211 59.3382L355.246 58.921L357.666 60.9419Z" fill="#6E9340"/>
<path fill-rule="evenodd" clip-rule="evenodd" d="M364.516 34.7064L364.516 34.7064C363.077 35.5183 361.772 36.255 360.581 36.9403L360.172 40.6535L358.781 37.9899C356.302 39.4596 354.378 40.7232 352.776 42.0728L352.286 46.5221L350.894 43.8572C349.395 45.4703 348.162 47.3343 346.893 49.8311L348.224 53.3422L345.97 51.7412C345.125 53.5694 344.234 55.7017 343.215 58.2418C342.345 61.3004 341.899 65.921 344.489 67.0874C344.078 66.8996 343.744 66.6242 343.476 66.2816C344.563 65.2828 345.344 64.2871 346.38 62.9655L346.38 62.9654C347.067 62.0889 347.867 61.069 348.943 59.8097C349.97 58.6079 350.761 57.6994 351.618 56.7156C353.012 55.1144 354.58 53.3137 357.621 49.7242C361.188 45.515 361.746 44.6542 369.899 31.6865L369.908 31.6442C367.924 32.7828 366.136 33.792 364.516 34.706L364.516 34.706L364.516 34.7064Z" fill="#80A74D"/>
<path d="M402.019 74.5804C410.333 76.3401 411.836 85.3029 403.341 93.5014L297.378 204.731L130.828 204.731C183.759 158.211 290.393 64.473 293.474 61.6837C297.326 58.1971 301.097 53.5462 316.227 56.5849C331.357 59.6236 393.706 72.8208 402.019 74.5804Z" fill="#6F6FCB"/>
<path d="M391.702 67.5044C400.015 69.264 401.518 78.2269 393.023 86.4254L287.06 197.655L120.51 197.655C173.441 151.135 280.075 57.3969 283.157 54.6077C287.008 51.1211 290.779 46.4701 305.909 49.5088C321.039 52.5475 383.388 65.7447 391.702 67.5044Z" fill="#A8A3FB"/>
<path d="M357.534 82.3888C363.709 83.6959 364.826 90.3537 358.515 96.4438L279.803 179.068L156.085 179.068C195.404 144.512 274.614 74.8807 276.903 72.8087C279.765 70.2188 282.565 66.764 293.804 69.0212C305.044 71.2784 351.358 81.0816 357.534 82.3888Z" fill="#6F6FCB"/>
<ellipse cx="263.362" cy="141.121" rx="64.8385" ry="22.6966" transform="rotate(-34.5701 263.362 141.121)" fill="#B0ABFA"/>
<path d="M325.584 81.3546C317.183 72.1383 294.413 60.7291 246.467 82.6853C227.897 91.1888 218.794 94.5892 214.5 85.6774C211.065 78.5481 216.535 71.0235 219.699 68.1524L205.953 53.9707C198.828 60.1485 186.801 77.5439 195.691 97.7034C204.582 117.863 229.024 113.892 246.467 108.819C246.467 108.819 245.5 157.44 245.5 164.94L245.5 176.662C254.645 173.442 267.175 166.45 275.98 160.208C285.296 153.605 295.37 145.921 299.338 140.965C299.338 137.461 299.394 136.616 299.019 132.629C298.103 122.885 306.769 85.6775 306.769 85.6775C315.158 88.4746 313.633 91.2717 313.633 93.8146C313.633 101.387 304.879 114.075 303.008 117.597C303.943 120.454 305.968 130.432 304.565 134.848C318.549 130.368 333.985 90.571 325.584 81.3546Z" fill="#F5F5F5"/>
<path d="M272.526 86.9597L282.252 78.4758L265.843 77.3585L262.604 80.0513L263.881 89.1875L258.38 92.7789L262.964 112.053L272.526 86.9597Z" fill="#249F94"/>
<path d="M225.353 63.83C225.353 63.83 219.076 67.876 218.752 69.564L204.796 56.8914C205.127 55.8849 206.968 53.0726 211.682 49.8762C210.157 48.6514 210.935 48.6453 211.084 47.3277C211.233 46.01 217.151 42.6925 218.64 41.6836C220.128 40.6746 221.129 41.1256 222.757 42.3672C223.69 41.3004 225.226 42.1707 226.005 44.8574C226.539 44.2349 228.01 43.5851 229.388 46.3869C233.395 46.5374 231.107 51.9984 229.442 53.3877C227.778 54.7771 227.5 56.4396 227.5 56.4396C227.5 56.4396 231.504 54.9809 232.5 56.4396C233.538 57.961 230 60.4396 230 60.4396L225.353 63.83Z" fill="#FDB594"/>
<path d="M222.009 51.8305C219.601 53.4627 217.617 52.0896 217.454 51.0108C216.956 47.7018 221.235 45.6255 223.436 45.001" stroke="#F37E4E" stroke-width="0.854942" stroke-linecap="round"/>
<path d="M225.907 53.7789C223.5 55.411 221.515 54.0379 221.353 52.9591C220.854 49.6502 225.133 47.5739 227.335 46.9494" stroke="#F37E4E" stroke-width="0.854942" stroke-linecap="round"/>
<path d="M217.863 48.618C215.456 50.2502 213.471 48.8771 213.309 47.7983C213.244 47.3694 212.806 47.057 213.888 45.368" stroke="#F37E4E" stroke-width="0.854942" stroke-linecap="round"/>
<rect x="276" y="95.4396" width="13.8227" height="4.65292" fill="#D9D9D9"/>
<rect width="4.76358" height="11.115" rx="2.38179" transform="matrix(-0.0852725 -0.996358 -0.996358 0.0852725 235.077 161.408)" fill="#D9D9D9"/>
<rect width="4.76358" height="11.115" rx="2.38179" transform="matrix(-0.0852725 -0.996358 -0.996358 0.0852725 235.077 161.408)" fill="#FBFEFF"/>
<path d="M229.54 161.882L226.376 162.153C225.065 162.265 223.911 161.293 223.799 159.983C223.687 158.672 224.659 157.519 225.969 157.406L229.133 157.136L229.54 161.882Z" fill="#80A74D"/>
<rect width="4.76358" height="11.115" rx="2.38179" transform="matrix(0.618561 -0.785737 -0.785737 -0.618561 227.875 150.863)" fill="#D9D9D9"/>
<rect width="4.76358" height="11.115" rx="2.38179" transform="matrix(0.618561 -0.785737 -0.785737 -0.618561 227.875 150.863)" fill="#FBFEFF"/>
<path d="M223.508 147.425L221.012 145.461C219.979 144.647 219.801 143.15 220.614 142.116C221.428 141.083 222.925 140.904 223.959 141.718L226.454 143.683L223.508 147.425Z" fill="#FDB897"/>
<rect x="218.574" y="156.216" width="1.17282" height="3.51846" rx="0.586411" transform="rotate(-63.6727 218.574 156.216)" fill="#6F6FCB"/>
<rect x="216.968" y="160.919" width="1.17282" height="3.51846" rx="0.586411" transform="rotate(-95.0726 216.968 160.919)" fill="#6F6FCB"/>
<rect x="220.233" y="165.271" width="1.17282" height="3.51846" rx="0.586411" transform="rotate(-133.308 220.233 165.271)" fill="#6F6FCB"/>
<rect x="217.933" y="134.832" width="1.17282" height="3.51846" rx="0.586411" transform="rotate(-24.4239 217.933 134.832)" fill="#F7F2FD"/>
<rect x="213.713" y="137.458" width="1.17282" height="3.51846" rx="0.586411" transform="rotate(-55.8238 213.713 137.458)" fill="#F7F2FD"/>
<rect x="213.488" y="142.895" width="1.17282" height="3.51846" rx="0.586411" transform="rotate(-94.059 213.488 142.895)" fill="#F7F2FD"/>
<circle cx="312.5" cy="62.9396" r="2.5" fill="#6F6FCB"/>
<rect x="318.559" y="63.1236" width="22" height="3" rx="1.5" transform="rotate(12.3682 318.559 63.1236)" fill="#6F6FCB"/>
<path d="M240.5 22.4396C240.5 24.6488 239.381 26.4396 238 26.4396C239.381 26.4396 240.5 28.2305 240.5 30.4396C240.5 28.2305 241.619 26.4396 243 26.4396C241.619 26.4396 240.5 24.6488 240.5 22.4396Z" fill="white"/>
<path d="M236.5 8.43964C236.5 13.6863 233.59 17.9396 230 17.9396C233.59 17.9396 236.5 22.1929 236.5 27.4396C236.5 22.1929 239.41 17.9396 243 17.9396C239.41 17.9396 236.5 13.6863 236.5 8.43964Z" fill="white"/>
<path d="M29.4146 21.2097C16.6726 18.7178 14.0694 23.177 9 31.4396H86C85.589 26.587 79.2865 23.7016 73.258 21.2097C67.2295 18.7178 63.1192 23.9639 60.242 21.2097C49.8292 10.9798 43.5267 13.4717 29.4146 21.2097Z" fill="#F6EDFD"/>
<path d="M280.103 113.972L279.844 112.085L291.992 110.414L292.249 112.28C292.272 112.451 292.429 112.569 292.599 112.546C294.335 112.307 295.935 113.52 296.173 115.255L298.661 133.336C298.923 135.241 297.591 136.998 295.686 137.26L283.762 138.901C281.857 139.163 280.1 137.831 279.838 135.926L277.322 117.64C277.099 116.018 278.233 114.523 279.855 114.299C280.014 114.278 280.125 114.131 280.103 113.972Z" fill="#A8A3FB"/>
<path d="M293.373 110.453L278.75 112.465C278.584 112.488 278.431 112.372 278.409 112.206L278.047 109.581C277.911 108.587 278.606 107.671 279.6 107.534L291.073 105.956C292.15 105.807 293.143 106.56 293.291 107.637L293.632 110.112C293.654 110.277 293.539 110.43 293.373 110.453Z" fill="#6F6FCB"/>
<path d="M279.929 136.372C280.383 138.034 282.01 139.142 283.762 138.901L295.686 137.26C297.439 137.019 298.706 135.513 298.694 133.79L279.929 136.372Z" fill="#6F6FCB"/>
<rect x="279.753" y="120.635" width="7" height="2" transform="rotate(-7.83375 279.753 120.635)" fill="#6F6FCB"/>
<path d="M284.224 128.992C283.977 128.869 283.676 128.969 283.553 129.216C283.429 129.463 283.529 129.763 283.776 129.887L284.224 128.992ZM283.776 129.887C284.897 130.447 287.935 131.155 291.658 129.914L291.342 128.965C287.865 130.124 285.103 129.432 284.224 128.992L283.776 129.887Z" fill="#F37E4E"/>
<path d="M297.36 117.111C300.684 119.748 301.665 119.337 303 118.44C303 118.44 304.919 123.529 305.5 126.94C306.266 131.44 304.5 135.94 304.5 135.94C303.613 136.383 301.296 135.603 298.36 136.185C296.437 136.566 295.455 137.305 293.5 137.44C290.826 137.624 288.404 136.508 286.753 136.185C285.102 135.862 284.741 134.9 284.492 133C283.169 133.083 282.734 131.49 284.005 129.201C283.24 129.257 281.839 128.708 282.791 125.946C280.249 123.185 285.385 121.105 287.405 121.294C289.425 121.484 295.569 123.138 292.86 119.111C290.151 115.083 290.468 113.642 292.86 114.111C295.251 114.579 293.204 113.814 297.36 117.111Z" fill="#FDB594"/>
<path d="M283.224 124.992C282.977 124.869 282.676 124.969 282.553 125.216C282.429 125.463 282.529 125.763 282.776 125.887L283.224 124.992ZM282.776 125.887C283.897 126.447 286.935 127.155 290.658 125.914L290.342 124.965C286.865 126.124 284.103 125.432 283.224 124.992L282.776 125.887Z" fill="#F37E4E"/>
<path d="M284.224 128.992C283.977 128.869 283.676 128.969 283.553 129.216C283.429 129.463 283.529 129.763 283.776 129.887L284.224 128.992ZM283.776 129.887C284.897 130.447 287.935 131.155 291.658 129.914L291.342 128.965C287.865 130.124 285.103 129.432 284.224 128.992L283.776 129.887Z" fill="#F37E4E"/>
<path d="M285.224 132.992C284.977 132.869 284.676 132.969 284.553 133.216C284.429 133.463 284.529 133.763 284.776 133.887L285.224 132.992ZM284.776 133.887C285.897 134.447 288.935 135.155 292.658 133.914L292.342 132.965C288.865 134.124 286.103 133.432 285.224 132.992L284.776 133.887Z" fill="#F37E4E"/>
<path d="M290.5 89.4397C291.658 69.607 278.5 63.8836 269 64.4979C253.359 65.5093 250 72.4393 250 91.9396" stroke="#6F6FCB" stroke-width="3"/>
<path d="M247.5 106.44C245.833 106.606 244 106.24 244 103.44C244 100.64 244.415 92.7871 249.5 91.9396C255.5 90.9397 256.991 99.139 257 101.94C257.009 104.74 256.5 106.44 254 106.44" stroke="#6F6FCB" stroke-width="3" stroke-linecap="round"/>
<rect x="236.069" y="52.7326" width="64.5837" height="29.8079" rx="14.9039" transform="rotate(-3.60049 236.069 52.7326)" fill="#FDB897"/>
<circle cx="254.203" cy="64.036" r="2.48399" transform="rotate(-3.60049 254.203 64.036)" fill="black"/>
<circle cx="268.759" cy="63.1201" r="2.48399" transform="rotate(-3.60049 268.759 63.1201)" fill="black"/>
<path d="M256.082 72.6793C256.048 72.1429 256.642 71.7986 257.091 72.0944V72.0944C260.926 74.6213 265.952 74.3867 269.535 71.5137L269.845 71.2652C270.278 70.918 270.923 71.2027 270.957 71.7567L271.022 72.7861C271.123 74.3887 270.316 75.9123 268.934 76.7293L268.509 76.9803C265.401 78.8174 261.573 78.9546 258.342 77.3448V77.3448C257.085 76.719 256.258 75.4714 256.17 74.0707L256.082 72.6793Z" fill="#F37E4D"/>
<circle cx="240.002" cy="72.3963" r="4.96798" transform="rotate(-3.60049 240.002 72.3963)" fill="#F37E4D"/>
<circle cx="281.64" cy="69.7763" r="4.96798" transform="rotate(-3.60049 281.64 69.7763)" fill="#F37E4D"/>
<rect x="246.459" y="37.1454" width="41.2476" height="14.9039" transform="rotate(-3.60049 246.459 37.1454)" fill="white"/>
<rect x="259.905" y="38.9072" width="3.05575" height="9.69866" transform="rotate(-3.60049 259.905 38.9072)" fill="#D9D9D9"/>
<rect x="256.99" y="45.4804" width="3.05575" height="9.69866" transform="rotate(-93.6005 256.99 45.4804)" fill="#D9D9D9"/>
<circle cx="291" cy="93.4396" r="6" fill="#6F6FCB"/>
<circle cx="291" cy="93.4396" r="3" fill="#A8A3FB"/>
</g>
<defs>
<clipPath id="clip0_2008_1115">
<rect width="361" height="178" fill="white"/>
</clipPath>
</defs>
</svg>
