<svg width="22" height="20" viewBox="0 0 22 20" fill="none" xmlns="http://www.w3.org/2000/svg">
<path d="M11.3084 1.7917L18.8084 4.79168C19.1001 4.90835 19.3334 5.25834 19.3334 5.56667V8.33335C19.3334 8.79168 18.9584 9.16668 18.5001 9.16668H3.50008C3.04175 9.16668 2.66675 8.79168 2.66675 8.33335V5.56667C2.66675 5.25834 2.90009 4.90835 3.19175 4.79168L10.6918 1.7917C10.8584 1.72503 11.1417 1.72503 11.3084 1.7917Z" stroke="#121212" stroke-width="2" stroke-miterlimit="10" stroke-linecap="round" stroke-linejoin="round"/>
<path d="M19.3334 18.3333H2.66675V15.8333C2.66675 15.375 3.04175 15 3.50008 15H18.5001C18.9584 15 19.3334 15.375 19.3334 15.8333V18.3333Z" stroke="#121212" stroke-width="2" stroke-miterlimit="10" stroke-linecap="round" stroke-linejoin="round"/>
<path d="M4.33325 15V9.16669" stroke="#121212" stroke-width="2" stroke-miterlimit="10" stroke-linecap="round" stroke-linejoin="round"/>
<path d="M7.66675 15V9.16669" stroke="#121212" stroke-width="2" stroke-miterlimit="10" stroke-linecap="round" stroke-linejoin="round"/>
<path d="M11 15V9.16669" stroke="#121212" stroke-width="2" stroke-miterlimit="10" stroke-linecap="round" stroke-linejoin="round"/>
<path d="M14.3333 15V9.16669" stroke="#121212" stroke-width="2" stroke-miterlimit="10" stroke-linecap="round" stroke-linejoin="round"/>
<path d="M17.6667 15V9.16669" stroke="#121212" stroke-width="2" stroke-miterlimit="10" stroke-linecap="round" stroke-linejoin="round"/>
<path d="M1.83325 18.3333H20.1666" stroke="#121212" stroke-width="2" stroke-miterlimit="10" stroke-linecap="round" stroke-linejoin="round"/>
<path d="M11 7.08331C11.6904 7.08331 12.25 6.52367 12.25 5.83331C12.25 5.14296 11.6904 4.58331 11 4.58331C10.3096 4.58331 9.75 5.14296 9.75 5.83331C9.75 6.52367 10.3096 7.08331 11 7.08331Z" stroke="#121212" stroke-width="2" stroke-miterlimit="10" stroke-linecap="round" stroke-linejoin="round"/>
</svg>
