<svg width="40" height="40" viewBox="0 0 40 40" fill="none" xmlns="http://www.w3.org/2000/svg">
<rect width="40" height="40" rx="20" fill="#F39D84"/>
<path d="M19.25 26.25H17C15.9 26.25 15 27.15 15 28.25V28.5H14C13.59 28.5 13.25 28.84 13.25 29.25C13.25 29.66 13.59 30 14 30H26C26.41 30 26.75 29.66 26.75 29.25C26.75 28.84 26.41 28.5 26 28.5H25V28.25C25 27.15 24.1 26.25 23 26.25H20.75V23.96C20.5 23.99 20.25 24 20 24C19.75 24 19.5 23.99 19.25 23.96V26.25Z" fill="white"/>
<path d="M26.48 19.64C27.14 19.39 27.72 18.98 28.18 18.52C29.11 17.49 29.72 16.26 29.72 14.82C29.72 13.38 28.59 12.25 27.15 12.25H26.59C25.94 10.92 24.58 10 23 10H17C15.42 10 14.06 10.92 13.41 12.25H12.85C11.41 12.25 10.28 13.38 10.28 14.82C10.28 16.26 10.89 17.49 11.82 18.52C12.28 18.98 12.86 19.39 13.52 19.64C14.56 22.2 17.06 24 20 24C22.94 24 25.44 22.2 26.48 19.64ZM22.84 16.45L22.22 17.21C22.12 17.32 22.05 17.54 22.06 17.69L22.12 18.67C22.16 19.27 21.73 19.58 21.17 19.36L20.26 19C20.12 18.95 19.88 18.95 19.74 19L18.83 19.36C18.27 19.58 17.84 19.27 17.88 18.67L17.94 17.69C17.95 17.54 17.88 17.32 17.78 17.21L17.16 16.45C16.77 15.99 16.94 15.48 17.52 15.33L18.47 15.09C18.62 15.05 18.8 14.91 18.88 14.78L19.41 13.96C19.74 13.45 20.26 13.45 20.59 13.96L21.12 14.78C21.2 14.91 21.38 15.05 21.53 15.09L22.48 15.33C23.06 15.48 23.23 15.99 22.84 16.45Z" fill="white"/>
</svg>
