<svg width="40" height="40" viewBox="0 0 40 40" fill="none" xmlns="http://www.w3.org/2000/svg">
<rect width="40" height="40" rx="20" fill="#84DFF3"/>
<path d="M22.35 10H17.65C16.61 10 15.76 10.84 15.76 11.88V12.82C15.76 13.86 16.6 14.7 17.64 14.7H22.35C23.39 14.7 24.23 13.86 24.23 12.82V11.88C24.24 10.84 23.39 10 22.35 10Z" fill="white"/>
<path d="M25.24 12.82C25.24 14.41 23.94 15.71 22.35 15.71H17.65C16.06 15.71 14.76 14.41 14.76 12.82C14.76 12.26 14.16 11.91 13.66 12.17C12.25 12.92 11.29 14.41 11.29 16.12V25.53C11.29 27.99 13.3 30 15.76 30H24.24C26.7 30 28.71 27.99 28.71 25.53V16.12C28.71 14.41 27.75 12.92 26.34 12.17C25.84 11.91 25.24 12.26 25.24 12.82ZM23.34 20.73L19.34 24.73C19.19 24.88 19 24.95 18.81 24.95C18.62 24.95 18.43 24.88 18.28 24.73L16.78 23.23C16.49 22.94 16.49 22.46 16.78 22.17C17.07 21.88 17.55 21.88 17.84 22.17L18.81 23.14L22.28 19.67C22.57 19.38 23.05 19.38 23.34 19.67C23.63 19.96 23.63 20.44 23.34 20.73Z" fill="white"/>
</svg>
