<svg width="40" height="40" viewBox="0 0 40 40" fill="none" xmlns="http://www.w3.org/2000/svg">
<rect width="40" height="40" rx="20" fill="#98B1FC"/>
<path d="M30 15.55C30 16.21 29.46 16.75 28.8 16.75H11.2C10.54 16.75 10 16.21 10 15.55V15.54C10 13.25 11.85 11.4 14.14 11.4H25.85C28.14 11.4 30 13.26 30 15.55Z" fill="white"/>
<path d="M10 19.45V24.46C10 26.75 11.85 28.6 14.14 28.6H25.85C28.14 28.6 30 26.74 30 24.45V19.45C30 18.79 29.46 18.25 28.8 18.25H11.2C10.54 18.25 10 18.79 10 19.45ZM16 25.25H14C13.59 25.25 13.25 24.91 13.25 24.5C13.25 24.09 13.59 23.75 14 23.75H16C16.41 23.75 16.75 24.09 16.75 24.5C16.75 24.91 16.41 25.25 16 25.25ZM22.5 25.25H18.5C18.09 25.25 17.75 24.91 17.75 24.5C17.75 24.09 18.09 23.75 18.5 23.75H22.5C22.91 23.75 23.25 24.09 23.25 24.5C23.25 24.91 22.91 25.25 22.5 25.25Z" fill="white"/>
</svg>
