<svg width="40" height="40" viewBox="0 0 40 40" fill="none" xmlns="http://www.w3.org/2000/svg">
<rect width="40" height="40" rx="20" fill="#F39D84"/>
<path d="M24.59 15.41L14.31 25.69C13.83 26.17 13.01 26.06 12.72 25.45C12.2 24.38 11.9 23.17 11.9 21.9C11.88 16.38 17.48 11.66 19.38 10.21C19.75 9.93 20.25 9.93 20.61 10.21C21.48 10.87 23.11 12.24 24.64 14.04C24.98 14.44 24.96 15.04 24.59 15.41Z" fill="white"/>
<path d="M28.1 21.91C28.1 26.37 24.47 30 20 30C18.21 30 16.54 29.42 15.19 28.42C14.7 28.06 14.66 27.34 15.09 26.91L25.16 16.84C25.63 16.37 26.42 16.47 26.74 17.05C27.56 18.56 28.11 20.2 28.1 21.91Z" fill="white"/>
</svg>
