<svg width="40" height="40" viewBox="0 0 40 40" fill="none" xmlns="http://www.w3.org/2000/svg">
<rect width="40" height="40" rx="20" fill="#98B1FC"/>
<path d="M25.1801 13.25C23.4701 13.25 21.4301 13.9 21.4301 17V23C21.4301 26.1 23.4701 26.75 25.1801 26.75C26.8901 26.75 28.9301 26.1 28.9301 23V17C28.9301 13.9 26.8901 13.25 25.1801 13.25Z" fill="white"/>
<path d="M14.8199 13.25C13.1099 13.25 11.0699 13.9 11.0699 17V23C11.0699 26.1 13.1099 26.75 14.8199 26.75C16.5299 26.75 18.5699 26.1 18.5699 23V17C18.5699 13.9 16.5299 13.25 14.8199 13.25Z" fill="white"/>
<path d="M21.4299 19.25H18.5699V20.75H21.4299V19.25Z" fill="white"/>
<path d="M30.5 23.25C30.09 23.25 29.75 22.91 29.75 22.5V17.5C29.75 17.09 30.09 16.75 30.5 16.75C30.91 16.75 31.25 17.09 31.25 17.5V22.5C31.25 22.91 30.91 23.25 30.5 23.25Z" fill="white"/>
<path d="M9.5 23.25C9.09 23.25 8.75 22.91 8.75 22.5V17.5C8.75 17.09 9.09 16.75 9.5 16.75C9.91 16.75 10.25 17.09 10.25 17.5V22.5C10.25 22.91 9.91 23.25 9.5 23.25Z" fill="white"/>
</svg>
