<svg width="20" height="20" viewBox="0 0 20 20" fill="none" xmlns="http://www.w3.org/2000/svg">
<path d="M1.66675 18.3333H18.3334" stroke="#121212" stroke-width="2" stroke-miterlimit="10" stroke-linecap="round" stroke-linejoin="round"/>
<path d="M2.45825 18.3333L2.49992 8.30833C2.49992 7.79999 2.74159 7.3167 3.14159 7.00004L8.97492 2.45836C9.57492 1.99169 10.4166 1.99169 11.0249 2.45836L16.8583 6.9917C17.2666 7.30836 17.4999 7.79166 17.4999 8.30833V18.3333" stroke="#121212" stroke-width="2" stroke-miterlimit="10" stroke-linejoin="round"/>
<path d="M10.8334 14.1667H9.16675C8.47508 14.1667 7.91675 14.725 7.91675 15.4167V18.3333H12.0834V15.4167C12.0834 14.725 11.5251 14.1667 10.8334 14.1667Z" stroke="#121212" stroke-width="2" stroke-miterlimit="10" stroke-linejoin="round"/>
<path d="M7.91675 11.4583H6.25008C5.79175 11.4583 5.41675 11.0833 5.41675 10.625V9.375C5.41675 8.91666 5.79175 8.54166 6.25008 8.54166H7.91675C8.37508 8.54166 8.75008 8.91666 8.75008 9.375V10.625C8.75008 11.0833 8.37508 11.4583 7.91675 11.4583Z" stroke="#121212" stroke-width="2" stroke-miterlimit="10" stroke-linejoin="round"/>
<path d="M13.75 11.4583H12.0833C11.625 11.4583 11.25 11.0833 11.25 10.625V9.375C11.25 8.91666 11.625 8.54166 12.0833 8.54166H13.75C14.2083 8.54166 14.5833 8.91666 14.5833 9.375V10.625C14.5833 11.0833 14.2083 11.4583 13.75 11.4583Z" stroke="#121212" stroke-width="2" stroke-miterlimit="10" stroke-linejoin="round"/>
<path d="M15.8333 5.83334L15.8083 3.33334H12.1416" stroke="#121212" stroke-width="2" stroke-miterlimit="10" stroke-linecap="round" stroke-linejoin="round"/>
</svg>
