<svg width="20" height="20" viewBox="0 0 20 20" fill="none" xmlns="http://www.w3.org/2000/svg">
<path d="M5 8.33334V6.66667C5 3.90834 5.83333 1.66667 10 1.66667C14.1667 1.66667 15 3.90834 15 6.66667V8.33334" stroke="#121212" stroke-width="2" stroke-linecap="round" stroke-linejoin="round"/>
<path d="M9.99996 15.4167C11.1506 15.4167 12.0833 14.4839 12.0833 13.3333C12.0833 12.1827 11.1506 11.25 9.99996 11.25C8.84937 11.25 7.91663 12.1827 7.91663 13.3333C7.91663 14.4839 8.84937 15.4167 9.99996 15.4167Z" stroke="#121212" stroke-width="2" stroke-linecap="round" stroke-linejoin="round"/>
<path d="M14.1666 18.3333H5.83329C2.49996 18.3333 1.66663 17.5 1.66663 14.1667V12.5C1.66663 9.16666 2.49996 8.33333 5.83329 8.33333H14.1666C17.5 8.33333 18.3333 9.16666 18.3333 12.5V14.1667C18.3333 17.5 17.5 18.3333 14.1666 18.3333Z" stroke="#121212" stroke-width="2" stroke-linecap="round" stroke-linejoin="round"/>
</svg>
