<svg width="40" height="40" viewBox="0 0 40 40" fill="none" xmlns="http://www.w3.org/2000/svg">
<rect width="40" height="40" rx="20" fill="#F39D84"/>
<path d="M15 10H14C11 10 10 11.79 10 14V15V29C10 29.83 10.94 30.3 11.6 29.8L13.31 28.52C13.71 28.22 14.27 28.26 14.63 28.62L16.29 30.29C16.68 30.68 17.32 30.68 17.71 30.29L19.39 28.61C19.74 28.26 20.3 28.22 20.69 28.52L22.4 29.8C23.06 30.29 24 29.82 24 29V12C24 10.9 24.9 10 26 10H15ZM19.25 21.75H14.75C14.34 21.75 14 21.41 14 21C14 20.59 14.34 20.25 14.75 20.25H19.25C19.66 20.25 20 20.59 20 21C20 21.41 19.66 21.75 19.25 21.75ZM20 17.75H14C13.59 17.75 13.25 17.41 13.25 17C13.25 16.59 13.59 16.25 14 16.25H20C20.41 16.25 20.75 16.59 20.75 17C20.75 17.41 20.41 17.75 20 17.75Z" fill="white"/>
<path d="M26.01 10V11.5C26.67 11.5 27.3 11.77 27.76 12.22C28.24 12.71 28.5 13.34 28.5 14V16.42C28.5 17.16 28.17 17.5 27.42 17.5H25.5V12.01C25.5 11.73 25.73 11.5 26.01 11.5V10ZM26.01 10C24.9 10 24 10.9 24 12.01V19H27.42C29 19 30 18 30 16.42V14C30 12.9 29.55 11.9 28.83 11.17C28.1 10.45 27.11 10.01 26.01 10C26.02 10 26.01 10 26.01 10Z" fill="white"/>
</svg>
