<svg width="40" height="40" viewBox="0 0 40 40" fill="none" xmlns="http://www.w3.org/2000/svg">
<rect width="40" height="40" rx="20" fill="#B99AE4"/>
<path d="M13.5 18C15.433 18 17 16.433 17 14.5C17 12.567 15.433 11 13.5 11C11.567 11 10 12.567 10 14.5C10 16.433 11.567 18 13.5 18Z" fill="white"/>
<path d="M13.5 29C15.433 29 17 27.433 17 25.5C17 23.567 15.433 22 13.5 22C11.567 22 10 23.567 10 25.5C10 27.433 11.567 29 13.5 29Z" fill="white"/>
<path d="M23.25 19.98L30.45 14.6C30.78 14.35 30.85 13.88 30.6 13.55C30.35 13.22 29.88 13.15 29.55 13.4L22 19.05L16.45 14.89C16.12 14.65 15.65 14.71 15.4 15.04C15.15 15.37 15.22 15.84 15.55 16.09L20.75 19.98L14.85 24.4C14.52 24.65 14.45 25.12 14.7 25.45C14.85 25.65 15.07 25.75 15.3 25.75C15.46 25.75 15.61 25.7 15.75 25.6L22 20.92L29.55 26.57C29.68 26.67 29.84 26.72 30 26.72C30.23 26.72 30.45 26.62 30.6 26.42C30.85 26.09 30.78 25.62 30.45 25.37L23.25 19.98Z" fill="white"/>
</svg>
