<svg width="40" height="40" viewBox="0 0 40 40" fill="none" xmlns="http://www.w3.org/2000/svg">
<rect width="40" height="40" rx="20" fill="#FEBE85"/>
<path d="M26.5398 12.12L21.0398 10.06C20.4698 9.85003 19.5398 9.85003 18.9698 10.06L13.4698 12.12C12.4098 12.52 11.5498 13.76 11.5498 14.89V22.99C11.5498 23.8 12.0798 24.87 12.7298 25.35L18.2298 29.46C19.1998 30.19 20.7898 30.19 21.7598 29.46L27.2598 25.35C27.9098 24.86 28.4398 23.8 28.4398 22.99V14.89C28.4498 13.76 27.5898 12.52 26.5398 12.12ZM23.4798 17.72L19.1798 22.02C19.0298 22.17 18.8398 22.24 18.6498 22.24C18.4598 22.24 18.2698 22.17 18.1198 22.02L16.5198 20.4C16.2298 20.11 16.2298 19.63 16.5198 19.34C16.8098 19.05 17.2898 19.05 17.5798 19.34L18.6598 20.42L22.4298 16.65C22.7198 16.36 23.1998 16.36 23.4898 16.65C23.7798 16.94 23.7798 17.43 23.4798 17.72Z" fill="white"/>
</svg>
