<svg width="20" height="20" viewBox="0 0 20 20" fill="none" xmlns="http://www.w3.org/2000/svg">
<path d="M9.78342 14.7917H14.7168C14.6418 14.8583 14.5667 14.9167 14.4917 14.9833L10.9334 17.65C9.75841 18.525 7.84175 18.525 6.65842 17.65L3.09175 14.9833C2.30842 14.4 1.66675 13.1083 1.66675 12.1333V5.95832C1.66675 4.94165 2.44175 3.81665 3.39175 3.45832L7.54175 1.89999C8.22508 1.64165 9.35842 1.64165 10.0418 1.89999L14.1834 3.45832C14.9751 3.75832 15.6501 4.59165 15.8584 5.44165H9.77508C9.59174 5.44165 9.42508 5.45 9.26674 5.45C7.72508 5.54166 7.32508 6.09998 7.32508 7.85832V12.3833C7.33341 14.3 7.82509 14.7917 9.78342 14.7917Z" stroke="#121212" stroke-width="2" stroke-linecap="round" stroke-linejoin="round"/>
<path d="M7.3335 9.34998H18.3335" stroke="#121212" stroke-width="2" stroke-miterlimit="10" stroke-linecap="round" stroke-linejoin="round"/>
<path d="M18.3335 7.84999V12.475C18.3168 14.325 17.8085 14.7833 15.8835 14.7833H9.7835C7.82516 14.7833 7.3335 14.2916 7.3335 12.3666V7.84165C7.3335 6.09165 7.7335 5.5333 9.27516 5.4333C9.4335 5.4333 9.60016 5.42499 9.7835 5.42499H15.8835C17.8418 5.43332 18.3335 5.91666 18.3335 7.84999Z" stroke="#121212" stroke-width="2" stroke-linecap="round" stroke-linejoin="round"/>
<path d="M9.43335 12.7167H10.5417" stroke="#121212" stroke-width="2" stroke-miterlimit="10" stroke-linecap="round" stroke-linejoin="round"/>
<path d="M12.2917 12.7167H15.0168" stroke="#121212" stroke-width="2" stroke-miterlimit="10" stroke-linecap="round" stroke-linejoin="round"/>
</svg>
