<svg width="20" height="20" viewBox="0 0 20 20" fill="none" xmlns="http://www.w3.org/2000/svg">
<path d="M4.16667 8.33337C3.25 8.33337 2.5 9.08337 2.5 10C2.5 10.9167 3.25 11.6667 4.16667 11.6667C5.08333 11.6667 5.83333 10.9167 5.83333 10C5.83333 9.08337 5.08333 8.33337 4.16667 8.33337Z" stroke="#121212" stroke-width="2"/>
<path d="M15.8334 8.33337C14.9167 8.33337 14.1667 9.08337 14.1667 10C14.1667 10.9167 14.9167 11.6667 15.8334 11.6667C16.7501 11.6667 17.5001 10.9167 17.5001 10C17.5001 9.08337 16.7501 8.33337 15.8334 8.33337Z" stroke="#121212" stroke-width="2"/>
<path d="M9.99992 8.33337C9.08325 8.33337 8.33325 9.08337 8.33325 10C8.33325 10.9167 9.08325 11.6667 9.99992 11.6667C10.9166 11.6667 11.6666 10.9167 11.6666 10C11.6666 9.08337 10.9166 8.33337 9.99992 8.33337Z" stroke="#121212" stroke-width="2"/>
</svg>
