<svg width="30" height="30" viewBox="0 0 30 30" fill="none" xmlns="http://www.w3.org/2000/svg">
<rect width="30" height="30" rx="15" fill="#E82525"/>
<path d="M21.0466 10.4867C19.9733 10.38 18.8999 10.3 17.8199 10.24V10.2334L17.6733 9.36671C17.5733 8.75337 17.4266 7.83337 15.8666 7.83337H14.1199C12.5666 7.83337 12.4199 8.71337 12.3133 9.36004L12.1733 10.2134C11.5533 10.2534 10.9333 10.2934 10.3133 10.3534L8.95328 10.4867C8.67328 10.5134 8.47328 10.76 8.49994 11.0334C8.52661 11.3067 8.76661 11.5067 9.04661 11.48L10.4066 11.3467C13.8999 11 17.4199 11.1334 20.9533 11.4867C20.9733 11.4867 20.9866 11.4867 21.0066 11.4867C21.2599 11.4867 21.4799 11.2934 21.5066 11.0334C21.5266 10.76 21.3266 10.5134 21.0466 10.4867Z" fill="white"/>
<path d="M19.8199 12.4266C19.6599 12.26 19.4399 12.1666 19.2132 12.1666H10.7866C10.5599 12.1666 10.3332 12.26 10.1799 12.4266C10.0266 12.5933 9.93991 12.82 9.95325 13.0533L10.3666 19.8933C10.4399 20.9066 10.5332 22.1733 12.8599 22.1733H17.1399C19.4666 22.1733 19.5599 20.9133 19.6332 19.8933L20.0466 13.06C20.0599 12.82 19.9732 12.5933 19.8199 12.4266ZM16.1066 18.8333H13.8866C13.6132 18.8333 13.3866 18.6066 13.3866 18.3333C13.3866 18.06 13.6132 17.8333 13.8866 17.8333H16.1066C16.3799 17.8333 16.6066 18.06 16.6066 18.3333C16.6066 18.6066 16.3799 18.8333 16.1066 18.8333ZM16.6666 16.1666H13.3332C13.0599 16.1666 12.8332 15.94 12.8332 15.6666C12.8332 15.3933 13.0599 15.1666 13.3332 15.1666H16.6666C16.9399 15.1666 17.1666 15.3933 17.1666 15.6666C17.1666 15.94 16.9399 16.1666 16.6666 16.1666Z" fill="white"/>
</svg>
