<svg width="40" height="40" viewBox="0 0 40 40" fill="none" xmlns="http://www.w3.org/2000/svg">
<rect width="40" height="40" rx="20" fill="#98B1FC"/>
<path d="M29.5599 18.74L28.1999 17.16C27.9399 16.86 27.7299 16.3 27.7299 15.9V14.2C27.7299 13.14 26.8599 12.27 25.7999 12.27H24.0999C23.7099 12.27 23.1399 12.06 22.8399 11.8L21.2599 10.44C20.5699 9.85 19.4399 9.85 18.7399 10.44L17.1699 11.81C16.8699 12.06 16.2999 12.27 15.9099 12.27H14.1799C13.1199 12.27 12.2499 13.14 12.2499 14.2V15.91C12.2499 16.3 12.0399 16.86 11.7899 17.16L10.4399 18.75C9.85988 19.44 9.85988 20.56 10.4399 21.25L11.7899 22.84C12.0399 23.14 12.2499 23.7 12.2499 24.09V25.8C12.2499 26.86 13.1199 27.73 14.1799 27.73H15.9099C16.2999 27.73 16.8699 27.94 17.1699 28.2L18.7499 29.56C19.4399 30.15 20.5699 30.15 21.2699 29.56L22.8499 28.2C23.1499 27.94 23.7099 27.73 24.1099 27.73H25.8099C26.8699 27.73 27.7399 26.86 27.7399 25.8V24.1C27.7399 23.71 27.9499 23.14 28.2099 22.84L29.5699 21.26C30.1499 20.57 30.1499 19.43 29.5599 18.74ZM24.6799 20L23.5099 23.56C23.3599 24.15 22.7299 24.63 22.0899 24.63H20.2399C19.9199 24.63 19.4699 24.52 19.2699 24.32L17.7999 23.17C17.7699 23.81 17.4799 24.08 16.7699 24.08H16.2899C15.5499 24.08 15.2499 23.79 15.2499 23.09V18.31C15.2499 17.61 15.5499 17.32 16.2899 17.32H16.7799C17.5199 17.32 17.8199 17.61 17.8199 18.31V18.67L19.7599 15.79C19.9599 15.48 20.4699 15.26 20.8999 15.43C21.3699 15.59 21.6699 16.11 21.5699 16.57L21.3299 18.13C21.3099 18.27 21.3399 18.4 21.4299 18.5C21.5099 18.59 21.6299 18.65 21.7599 18.65H23.7099C24.0899 18.65 24.4099 18.8 24.5999 19.07C24.7699 19.33 24.7999 19.66 24.6799 20Z" fill="white"/>
</svg>
