<svg width="40" height="40" viewBox="0 0 40 40" fill="none" xmlns="http://www.w3.org/2000/svg">
<rect width="40" height="40" rx="20" fill="#FEBE85"/>
<path d="M14 13.12C13.59 13.12 13.25 12.78 13.25 12.37V10.62C13.25 10.21 13.59 9.87 14 9.87C14.41 9.87 14.75 10.21 14.75 10.62V12.37C14.75 12.79 14.41 13.12 14 13.12Z" fill="white"/>
<path d="M18 13.12C17.59 13.12 17.25 12.78 17.25 12.37V10.62C17.25 10.21 17.59 9.87 18 9.87C18.41 9.87 18.75 10.21 18.75 10.62V12.37C18.75 12.79 18.41 13.12 18 13.12Z" fill="white"/>
<path d="M22 13.12C21.59 13.12 21.25 12.78 21.25 12.37V10.62C21.25 10.21 21.59 9.87 22 9.87C22.41 9.87 22.75 10.21 22.75 10.62V12.37C22.75 12.79 22.41 13.12 22 13.12Z" fill="white"/>
<path d="M30.25 21.25C30.25 18.63 28.22 16.51 25.66 16.29C24.92 15.08 23.6 14.26 22.08 14.26H14.71C12.39 14.26 10.5 16.15 10.5 18.47V19H26.29V18.47C26.29 18.28 26.26 18.09 26.23 17.91C27.68 18.34 28.75 19.66 28.75 21.25C28.75 22.82 27.71 24.13 26.29 24.57V20H10.5V25.79C10.5 28.11 12.39 30 14.71 30H22.08C24.28 30 26.07 28.3 26.25 26.14C28.53 25.68 30.25 23.66 30.25 21.25Z" fill="white"/>
</svg>
