<svg width="208" height="60" viewBox="0 0 208 60" fill="none" xmlns="http://www.w3.org/2000/svg">
<path d="M33.0369 48.1674C33.0908 42.6602 31.6946 38.1818 29.9186 38.1644C28.1425 38.1472 26.659 42.5975 26.6053 48.1045C26.5514 53.6117 27.9476 58.0902 29.7236 58.1075C31.4997 58.1249 32.9831 53.6746 33.0369 48.1674Z" fill="#FD915A"/>
<path d="M22.7364 46.9166C25.7593 42.313 27.0063 37.7906 25.5216 36.8158C24.0369 35.8409 20.3827 38.7826 17.3599 43.3862C14.337 47.9899 13.0901 52.5121 14.5747 53.4871C16.0595 54.462 19.7135 51.5203 22.7364 46.9166Z" fill="#FD915A"/>
<path d="M14.7351 40.3116C19.7671 38.0734 23.2612 34.9433 22.5393 33.3204C21.8175 31.6975 17.1531 32.1965 12.121 34.4348C7.08896 36.6731 3.59488 39.8032 4.31674 41.426C5.03859 43.0489 9.70304 42.55 14.7351 40.3116Z" fill="#FD915A"/>
<path d="M21.9352 28.7694C22.2055 27.0139 18.0118 24.9116 12.5686 24.0738C7.1253 23.236 2.49361 23.98 2.22342 25.7354C1.95322 27.4909 6.14684 29.5931 11.5901 30.4309C17.0334 31.2688 21.6651 30.5248 21.9352 28.7694Z" fill="#FD915A"/>
<path d="M23.8896 24.5874C25.0659 23.2566 22.674 19.2211 18.5473 15.574C14.4207 11.9268 10.1218 10.0491 8.94558 11.38C7.76937 12.7109 10.1612 16.7464 14.2879 20.3935C18.4146 24.0407 22.7135 25.9183 23.8896 24.5874Z" fill="#FD915A"/>
<path d="M27.7817 22.1434C29.4908 21.6598 29.6606 16.9717 28.1611 11.6724C26.6615 6.37314 24.0604 2.46925 22.3514 2.95286C20.6423 3.43648 20.4725 8.12444 21.9721 13.4238C23.4716 18.723 26.0727 22.627 27.7817 22.1434Z" fill="#FD915A"/>
<path d="M38.35 13.5887C39.9538 8.31996 39.8766 3.62955 38.1774 3.11234C36.4782 2.59511 33.8006 6.44694 32.1968 11.7157C30.5931 16.9843 30.6704 21.6748 32.3696 22.192C34.0688 22.7092 36.7464 18.8574 38.35 13.5887Z" fill="#FD915A"/>
<path d="M45.9017 20.7078C50.0989 17.142 52.5692 13.154 51.4191 11.8005C50.2692 10.4469 45.9344 12.2402 41.7373 15.8059C37.5401 19.3717 35.0699 23.3597 36.2198 24.7133C37.3698 26.0669 41.7045 24.2736 45.9017 20.7078Z" fill="#FD915A"/>
<path d="M48.3986 30.7823C53.8574 30.052 58.0916 28.0328 57.8561 26.2723C57.6206 24.5119 53.0045 23.6768 47.5457 24.407C42.087 25.1374 37.8527 27.1565 38.0882 28.917C38.3238 30.6774 42.9398 31.5126 48.3986 30.7823Z" fill="#FD915A"/>
<path d="M55.4404 41.9292C56.1942 40.321 52.7625 37.1226 47.7756 34.7855C42.7887 32.4484 38.135 31.8576 37.3813 33.4658C36.6276 35.0742 40.0592 38.2726 45.0462 40.6097C50.033 42.9467 54.6867 43.5376 55.4404 41.9292Z" fill="#FD915A"/>
<path d="M44.9507 53.7959C46.4543 52.8505 45.2968 48.3044 42.3653 43.6421C39.4338 38.9797 35.8384 35.9666 34.3348 36.912C32.8312 37.8574 33.9887 42.4034 36.9202 47.0658C39.8517 51.7282 43.4471 54.7414 44.9507 53.7959Z" fill="#FD915A"/>
<path d="M83.538 34.494V43.5H76.052V16.596H87.224C90.4667 16.596 92.9367 17.4193 94.634 19.066C96.3567 20.6873 97.218 22.866 97.218 25.602C97.218 27.2993 96.838 28.8193 96.078 30.162C95.318 31.5047 94.178 32.5687 92.658 33.354C91.1633 34.114 89.352 34.494 87.224 34.494H83.538ZM86.388 28.604C88.5667 28.604 89.656 27.6033 89.656 25.602C89.656 23.626 88.5667 22.638 86.388 22.638H83.538V28.604H86.388ZM108.04 21.916C109.535 21.916 110.827 22.2453 111.916 22.904C113.031 23.5373 113.854 24.424 114.386 25.564V22.182H121.834V43.5H114.386V40.118C113.854 41.258 113.031 42.1573 111.916 42.816C110.827 43.4493 109.535 43.766 108.04 43.766C106.343 43.766 104.81 43.3353 103.442 42.474C102.074 41.5873 100.997 40.3207 100.212 38.674C99.4267 37.002 99.034 35.0513 99.034 32.822C99.034 30.5927 99.4267 28.6547 100.212 27.008C100.997 25.3613 102.074 24.1073 103.442 23.246C104.81 22.3593 106.343 21.916 108.04 21.916ZM110.51 28.452C109.345 28.452 108.395 28.8447 107.66 29.63C106.951 30.39 106.596 31.454 106.596 32.822C106.596 34.2153 106.951 35.3047 107.66 36.09C108.395 36.85 109.345 37.23 110.51 37.23C111.625 37.23 112.549 36.8373 113.284 36.052C114.019 35.2667 114.386 34.19 114.386 32.822C114.386 31.4793 114.019 30.4153 113.284 29.63C112.549 28.8447 111.625 28.452 110.51 28.452ZM133.413 26.172C134.249 24.9053 135.3 23.892 136.567 23.132C137.834 22.372 139.176 21.992 140.595 21.992V29.972H138.429C136.757 29.972 135.503 30.3013 134.667 30.96C133.831 31.5933 133.413 32.708 133.413 34.304V43.5H125.927V22.182H133.413V26.172ZM171.116 21.992C173.801 21.992 175.891 22.8027 177.386 24.424C178.906 26.0453 179.666 28.2747 179.666 31.112V43.5H172.218V32.062C172.218 30.922 171.901 30.0353 171.268 29.402C170.634 28.7687 169.786 28.452 168.722 28.452C167.607 28.452 166.72 28.7813 166.062 29.44C165.428 30.0733 165.112 30.9853 165.112 32.176V43.5H157.664V32.062C157.664 30.922 157.347 30.0353 156.714 29.402C156.08 28.7687 155.232 28.452 154.168 28.452C153.053 28.452 152.166 28.7813 151.508 29.44C150.874 30.0733 150.558 30.9853 150.558 32.176V43.5H143.072V22.182H150.558V25.45C151.166 24.386 152.014 23.55 153.104 22.942C154.193 22.3087 155.472 21.992 156.942 21.992C158.538 21.992 159.944 22.3467 161.16 23.056C162.376 23.7653 163.326 24.7787 164.01 26.096C164.744 24.8547 165.732 23.8667 166.974 23.132C168.215 22.372 169.596 21.992 171.116 21.992ZM191.536 21.916C193.031 21.916 194.323 22.2453 195.412 22.904C196.527 23.5373 197.35 24.424 197.882 25.564V22.182H205.33V43.5H197.882V40.118C197.35 41.258 196.527 42.1573 195.412 42.816C194.323 43.4493 193.031 43.766 191.536 43.766C189.839 43.766 188.306 43.3353 186.938 42.474C185.57 41.5873 184.493 40.3207 183.708 38.674C182.923 37.002 182.53 35.0513 182.53 32.822C182.53 30.5927 182.923 28.6547 183.708 27.008C184.493 25.3613 185.57 24.1073 186.938 23.246C188.306 22.3593 189.839 21.916 191.536 21.916ZM194.006 28.452C192.841 28.452 191.891 28.8447 191.156 29.63C190.447 30.39 190.092 31.454 190.092 32.822C190.092 34.2153 190.447 35.3047 191.156 36.09C191.891 36.85 192.841 37.23 194.006 37.23C195.121 37.23 196.045 36.8373 196.78 36.052C197.515 35.2667 197.882 34.19 197.882 32.822C197.882 31.4793 197.515 30.4153 196.78 29.63C196.045 28.8447 195.121 28.452 194.006 28.452Z" fill="#121212"/>
</svg>
