<svg width="90" height="70" viewBox="0 0 90 70" fill="none" xmlns="http://www.w3.org/2000/svg">
<g clip-path="url(#clip0_30_1879)">
<rect width="90" height="70" rx="16" fill="#9FA2FB"/>
<path d="M80.5 17C80.5 19.2091 79.3807 21 78 21C79.3807 21 80.5 22.7909 80.5 25C80.5 22.7909 81.6193 21 83 21C81.6193 21 80.5 19.2091 80.5 17Z" fill="#F7F2FD"/>
<rect x="11" y="49" width="67" height="9" fill="#C9604D"/>
<path d="M11 14C11 11.2386 13.2386 9 16 9H72C75.3137 9 78 11.6863 78 15V49H11V14Z" fill="url(#paint0_linear_30_1879)"/>
<path d="M29.255 23.7811V21.8765H41.5179V23.7608C41.5179 23.9325 41.6571 24.0717 41.8288 24.0717C43.5802 24.0717 45 25.4915 45 27.2429V45.494C45 47.4171 43.441 48.9761 41.5179 48.9761H29.4821C27.559 48.9761 26 47.4171 26 45.494V27.036C26 25.3989 27.3272 24.0717 28.9644 24.0717C29.1249 24.0717 29.255 23.9416 29.255 23.7811Z" fill="#A8A3FB"/>
<path d="M42.8805 22.1036H28.1196C27.9523 22.1036 27.8168 21.968 27.8168 21.8008V19.1514C27.8168 18.148 28.6302 17.3347 29.6335 17.3347H41.2152C42.3021 17.3347 43.1833 18.2158 43.1833 19.3028V21.8008C43.1833 21.968 43.0477 22.1036 42.8805 22.1036Z" fill="#FBFEFF"/>
<path d="M26.0294 45.9482C26.252 47.6567 27.713 48.9761 29.4821 48.9761H41.518C43.2872 48.9761 44.7482 47.6567 44.9707 45.9482H26.0294Z" fill="#6F6FCB"/>
<path d="M45.2039 32.3648V31.0752H53.5068V32.351C53.5068 32.4673 53.6011 32.5615 53.7173 32.5615C54.9032 32.5615 55.8645 33.5228 55.8645 34.7087V47.0661C55.8645 48.3682 54.8089 49.4237 53.5068 49.4237H45.3576C44.0555 49.4237 43 48.3682 43 47.0661V34.5686C43 33.4601 43.8986 32.5615 45.0071 32.5615C45.1158 32.5615 45.2039 32.4734 45.2039 32.3648Z" fill="#FDB897"/>
<path d="M54.4294 31.2289H44.4351C44.3219 31.2289 44.2301 31.1371 44.2301 31.0239V29.2301C44.2301 28.5507 44.7808 28 45.4602 28H53.3019C54.0378 28 54.6344 28.5966 54.6344 29.3326V31.0239C54.6344 31.1371 54.5426 31.2289 54.4294 31.2289Z" fill="#FBFEFF"/>
<path d="M43.0199 47.3736C43.1706 48.5304 44.1598 49.4237 45.3577 49.4237H53.5069C54.7047 49.4237 55.6939 48.5304 55.8446 47.3736H43.0199Z" fill="#BC4833"/>
<rect x="44.2301" y="40.3007" width="4.61276" height="1.12756" fill="#C9604D"/>
<rect x="44.2301" y="37.6356" width="6.04784" height="1.12756" fill="#C9604D"/>
<rect x="29" y="31" width="8" height="3" fill="#6F6FCB"/>
<rect width="5.57182" height="13.0009" rx="2.78591" transform="matrix(0.319516 0.947581 0.947581 -0.319516 55.2007 42.9556)" fill="#D9D9D9"/>
<rect width="5.57182" height="13.0009" rx="2.78591" transform="matrix(0.319516 0.947581 0.947581 -0.319516 55.2007 42.9556)" fill="#FBFEFF"/>
<path d="M61.3604 40.8786L64.8802 39.6918C66.3382 39.2002 67.9186 39.9835 68.4102 41.4415C68.9019 42.8995 68.1185 44.4799 66.6605 44.9715L63.1407 46.1584L61.3604 40.8786Z" fill="#92A2FD"/>
<path d="M-12.3602 40.4572L-19.5605 64.4604C-13.6807 66.8491 -1.56948 71.982 -0.1629 73.4038C1.59533 75.181 0.876819 77.2985 5.81128 80.1535C11.1012 82.6569 18.8945 79.8704 22.0973 75.9985C27.7655 73.9076 31.7097 63.6756 31.3619 62.6131C32.0804 60.4956 31.3961 56.2492 28.2199 55.1715C27.9063 47.745 21.8865 49.4804 20.1168 49.8245C16.6118 44.1487 10.5729 49.4196 8.08475 51.8811C5.55899 48.1905 -6.5976 42.7274 -12.3602 40.4572Z" fill="#F7F7F7"/>
<path d="M20.5085 50.1402L15.8604 60.1099" stroke="black" stroke-linecap="round"/>
<path d="M13.4452 48.688L9.86786 56.447" stroke="black" stroke-linecap="round"/>
<path d="M28.26 55.1317L23.9718 63.594" stroke="black" stroke-linecap="round"/>
<path d="M100.951 40.4572L108.152 64.4604C102.272 66.8491 90.1605 71.982 88.754 73.4038C86.9957 75.181 87.7142 77.2985 82.7798 80.1535C77.4899 82.6569 69.6966 79.8704 66.4937 75.9985C60.8256 73.9076 56.8814 63.6756 57.2292 62.6131C56.5107 60.4956 57.195 56.2492 60.3712 55.1715C60.6848 47.745 66.7046 49.4804 68.4743 49.8245C71.9793 44.1487 78.0182 49.4196 80.5063 51.8811C83.0321 48.1905 95.1887 42.7274 100.951 40.4572Z" fill="#F7F7F7"/>
<path d="M68.0825 50.1402L72.7307 60.1099" stroke="black" stroke-linecap="round"/>
<path d="M75.1459 48.688L78.7232 56.447" stroke="black" stroke-linecap="round"/>
<path d="M60.3311 55.1317L64.6193 63.594" stroke="black" stroke-linecap="round"/>
<path d="M76.5 3C76.5 8.2467 73.5899 12.5 70 12.5C73.5899 12.5 76.5 16.7533 76.5 22C76.5 16.7533 79.4101 12.5 83 12.5C79.4101 12.5 76.5 8.2467 76.5 3Z" fill="#F7F2FD"/>
</g>
<defs>
<linearGradient id="paint0_linear_30_1879" x1="44.5" y1="9" x2="44.5" y2="49" gradientUnits="userSpaceOnUse">
<stop stop-color="#F9B4A1"/>
<stop offset="1" stop-color="#FC997D"/>
</linearGradient>
<clipPath id="clip0_30_1879">
<rect width="90" height="70" rx="16" fill="white"/>
</clipPath>
</defs>
</svg>
