<svg width="361" height="98" viewBox="0 0 361 98" fill="none" xmlns="http://www.w3.org/2000/svg">
<mask id="mask0_7_1045" style="mask-type:alpha" maskUnits="userSpaceOnUse" x="0" y="0" width="361" height="98">
<rect width="361" height="98" rx="15" fill="#E6D3F8"/>
</mask>
<g mask="url(#mask0_7_1045)">
<path fill-rule="evenodd" clip-rule="evenodd" d="M200.5 -0.750001C200.5 -4.75407 203.746 -8 207.75 -8C211.754 -8 215 -4.75406 215 -0.75V64C215 71.1797 209.18 77 202 77H132C124.82 77 119 71.1797 119 64V22.5H125C132.18 22.5 138 28.3203 138 35.5V45C138 54.3888 145.611 62 155 62H183.5C192.889 62 200.5 54.3888 200.5 45V-0.750001ZM115 64V22.5H100.5C93.3203 22.5 87.5 28.3203 87.5 35.5V90C87.5 97.732 81.232 104 73.5 104C65.768 104 59.5 97.732 59.5 90V65C59.5 57.8203 53.6797 52 46.5 52H45.5C36.1112 52 28.5 44.3888 28.5 35V-10H32.5V35C32.5 42.1797 38.3203 48 45.5 48H46.5C55.8888 48 63.5 55.6112 63.5 65V90C63.5 95.5229 67.9772 100 73.5 100C79.0228 100 83.5 95.5229 83.5 90V35.5C83.5 26.1112 91.1112 18.5 100.5 18.5H115V-10H119V18.5H125C134.389 18.5 142 26.1112 142 35.5V45C142 52.1797 147.82 58 155 58H183.5C190.68 58 196.5 52.1797 196.5 45V-0.750001C196.5 -6.9632 201.537 -12 207.75 -12C213.963 -12 219 -6.9632 219 -0.75V38.5H236V22.8342C236 8.86016 251.923 0.854336 263.139 9.18901L267.5 12.4292V8C267.5 -1.38884 275.111 -9 284.5 -9H293.5C302.889 -9 310.5 -1.38884 310.5 8V25.5C310.5 31.1303 307.763 36.1213 303.547 39.215L341.746 67.6004C350.323 73.9739 362.5 67.8518 362.5 57.1658V55.5C362.5 48.3203 356.68 42.5 349.5 42.5H328.5V38.5H349.5C358.889 38.5 366.5 46.1112 366.5 55.5V57.1658C366.5 71.1398 350.577 79.1457 339.361 70.811L299.695 41.336C297.775 42.0875 295.686 42.5 293.5 42.5H271.5V83.5C271.5 92.8888 263.889 100.5 254.5 100.5H253C243.611 100.5 236 92.8888 236 83.5V42.5H219V64C219 73.3888 211.389 81 202 81H132C122.611 81 115 73.3888 115 64ZM260.754 12.3996L267.5 17.4127V38.5H240V22.8342C240 12.1482 252.177 6.02606 260.754 12.3996ZM271.5 20.385V38.5H293.5C294.23 38.5 294.945 38.4399 295.642 38.3244L271.5 20.385ZM271.5 15.4016L300.136 36.6808C303.947 34.4143 306.5 30.2553 306.5 25.5V8C306.5 0.820298 300.68 -5 293.5 -5H284.5C277.32 -5 271.5 0.820299 271.5 8V15.4016ZM240 42.5H267.5V83.5C267.5 90.6797 261.68 96.5 254.5 96.5H253C245.82 96.5 240 90.6797 240 83.5V42.5Z" fill="url(#paint0_linear_7_1045)"/>
</g>
<defs>
<linearGradient id="paint0_linear_7_1045" x1="-1" y1="46" x2="356.5" y2="46" gradientUnits="userSpaceOnUse">
<stop stop-color="#E6D3F8"/>
<stop offset="1" stop-color="#C2A8DB"/>
</linearGradient>
</defs>
</svg>
